<svg viewBox="-165 -97 330 164" xmlns="http://www.w3.org/2000/svg" aria-hidden="true">
  <!-- bottom wings -->
  <path d="M -8,4 C -22,44 -78,62 -92,38 C -106,14 -80,-16 -55,-13 C -36,-10 -16,-4 -8,0 Z" fill="#2D5573"/>
  <path d="M -6,3 C -18,36 -64,52 -76,32 C -88,12 -66,-12 -45,-10 C -28,-8 -12,-3 -6,0 Z" fill="#3A6A8E"/>
  <path d="M -4,2 C -12,28 -50,42 -60,24 C -70,8 -52,-8 -34,-6 C -20,-5 -8,-2 -4,0 Z" fill="#4A7FA5"/>
  <path d="M 8,4 C 22,44 78,62 92,38 C 106,14 80,-16 55,-13 C 36,-10 16,-4 8,0 Z" fill="#C05C38"/>
  <path d="M 6,3 C 18,36 64,52 76,32 C 88,12 66,-12 45,-10 C 28,-8 12,-3 6,0 Z" fill="#D4704A"/>
  <path d="M 4,2 C 12,28 50,42 60,24 C 70,8 52,-8 34,-6 C 20,-5 8,-2 4,0 Z" fill="#E8845A"/>
  <!-- top wings -->
  <path d="M -8,-2 C -30,-62 -120,-92 -140,-52 C -160,-12 -120,38 -80,33 C -50,28 -20,13 -8,0 Z" fill="#2D5573"/>
  <path d="M -6,-2 C -25,-52 -105,-77 -122,-42 C -138,-7 -103,36 -68,30 C -42,25 -16,11 -6,0 Z" fill="#3A6A8E"/>
  <path d="M -4,-2 C -18,-40 -88,-60 -102,-30 C -116,-2 -85,28 -56,24 C -34,20 -12,9 -4,0 Z" fill="#4A7FA5"/>
  <path d="M 8,-2 C 30,-62 120,-92 140,-52 C 160,-12 120,38 80,33 C 50,28 20,13 8,0 Z" fill="#C05C38"/>
  <path d="M 6,-2 C 25,-52 105,-77 122,-42 C 138,-7 103,36 68,30 C 42,25 16,11 6,0 Z" fill="#D4704A"/>
  <path d="M 4,-2 C 18,-38 88,-58 102,-28 C 116,0 85,30 56,26 C 34,22 12,11 4,0 Z" fill="#E8845A"/>
  <!-- crossover -->
  <path d="M 4,-2 C 2,-14 0,-20 0,-22 C -2,-14 -4,-6 -4,-2 C -2,-1 0,0 4,-2 Z" fill="#E8845A"/>
  <path d="M -4,2 C -2,14 0,20 0,22 C 2,14 4,6 4,2 C 2,1 0,0 -4,2 Z" fill="#4A7FA5"/>
  <!-- spine -->
  <ellipse cx="0" cy="0" rx="3" ry="3" fill="#1A1A2E"/>
</svg>
