<svg viewBox="-120 -97 240 164" xmlns="http://www.w3.org/2000/svg">
  <path d="M -8,4 C -16,44 -62,60 -74,38 C -86,16 -66,-14 -46,-12 C -28,-10 -14,-4 -8,0 Z" fill="#2D5573"/>
  <path d="M -6,3 C -13,38 -52,52 -62,32 C -72,14 -54,-10 -38,-9 C -22,-8 -10,-3 -6,0 Z" fill="#3A6A8E"/>
  <path d="M -4,2 C -9,30 -42,44 -50,26 C -58,10 -44,-7 -30,-5 C -18,-4 -8,-2 -4,0 Z" fill="#4A7FA5"/>
  <path d="M 8,4 C 16,44 62,60 74,38 C 86,16 66,-14 46,-12 C 28,-10 14,-4 8,0 Z" fill="#C05C38"/>
  <path d="M 6,3 C 13,38 52,52 62,32 C 72,14 54,-10 38,-9 C 22,-8 10,-3 6,0 Z" fill="#D4704A"/>
  <path d="M 4,2 C 9,30 42,44 50,26 C 58,10 44,-7 30,-5 C 18,-4 8,-2 4,0 Z" fill="#E8845A"/>
  <path d="M -8,-2 C -24,-70 -98,-96 -112,-58 C -125,-20 -98,38 -66,33 C -42,28 -18,12 -8,0 Z" fill="#2D5573"/>
  <path d="M -6,-2 C -20,-60 -84,-82 -98,-48 C -110,-14 -86,34 -58,28 C -36,24 -14,10 -6,0 Z" fill="#3A6A8E"/>
  <path d="M -4,-2 C -15,-48 -70,-66 -82,-36 C -92,-8 -72,26 -48,22 C -30,18 -12,8 -4,0 Z" fill="#4A7FA5"/>
  <path d="M 8,-2 C 24,-70 98,-96 112,-58 C 125,-20 98,38 66,33 C 42,28 18,12 8,0 Z" fill="#C05C38"/>
  <path d="M 6,-2 C 20,-60 84,-82 98,-48 C 110,-14 86,34 58,28 C 36,24 14,10 6,0 Z" fill="#D4704A"/>
  <path d="M 4,-2 C 15,-48 70,-66 82,-36 C 92,-8 72,26 48,22 C 30,18 12,8 4,0 Z" fill="#E8845A"/>
  <path d="M 4,-2 C 2,-14 0,-20 0,-22 C -2,-14 -4,-6 -4,-2 C -2,-1 0,0 4,-2 Z" fill="#E8845A"/>
  <path d="M -4,2 C -2,14 0,20 0,22 C 2,14 4,6 4,2 C 2,1 0,0 -4,2 Z" fill="#4A7FA5"/>
  <ellipse cx="0" cy="0" rx="3" ry="3" fill="#1A1A2E"/>
</svg>
