<svg viewBox="-120 -97 240 164" xmlns="http://www.w3.org/2000/svg">
  <g fill="none" stroke="#A84B28" stroke-width="7" stroke-linejoin="round">
    <path d="M -8,4 C -16,44 -62,60 -74,38 C -86,16 -66,-14 -46,-12 C -28,-10 -14,-4 -8,0 Z"/>
    <path d="M 8,4 C 16,44 62,60 74,38 C 86,16 66,-14 46,-12 C 28,-10 14,-4 8,0 Z"/>
    <path d="M -8,-2 C -24,-70 -98,-96 -112,-58 C -125,-20 -98,38 -66,33 C -42,28 -18,12 -8,0 Z"/>
    <path d="M 8,-2 C 24,-70 98,-96 112,-58 C 125,-20 98,38 66,33 C 42,28 18,12 8,0 Z"/>
  </g>
  <circle cx="0" cy="0" r="5" fill="#A84B28"/>
</svg>
